<svg xmlns="http://www.w3.org/2000/svg" xmlns:xlink="http://www.w3.org/1999/xlink" width="600" height="350" viewBox="0 0 600 350"><rect width="100%" height="100%" fill="#000000"/><path d="M153.71 145.72L136.34 166.98L134.31 169.49Q136.02 168.64 137.98 168.18Q139.94 167.71 142.21 167.71L142.21 167.71Q145.53 167.71 148.67 168.80Q151.81 169.90 154.20 172.10Q156.59 174.31 158.05 177.59Q159.51 180.87 159.51 185.25L159.51 185.25Q159.51 189.34 158.01 192.92Q156.51 196.51 153.79 199.18Q151.08 201.85 147.25 203.39Q143.43 204.93 138.81 204.93L138.81 204.93Q134.11 204.93 130.39 203.43Q126.66 201.93 124.03 199.24Q121.39 196.55 120.00 192.76Q118.60 188.97 118.60 184.36L118.60 184.36Q118.60 180.22 120.28 175.87Q121.96 171.52 125.49 166.82L125.49 166.82L139.46 148.07Q140.19 147.10 141.58 146.41Q142.98 145.72 144.80 145.72L144.80 145.72L153.71 145.72ZM138.61 196.75L138.61 196.75Q141.00 196.75 143.00 195.94Q145.01 195.13 146.44 193.67Q147.88 192.21 148.69 190.25Q149.50 188.28 149.50 185.98L149.50 185.98Q149.50 183.46 148.73 181.46Q147.96 179.45 146.55 178.06Q145.13 176.66 143.14 175.93Q141.16 175.20 138.77 175.20L138.77 175.20Q136.38 175.20 134.44 176.01Q132.49 176.82 131.11 178.26Q129.74 179.70 128.97 181.66Q128.20 183.63 128.20 185.89L128.20 185.89Q128.20 188.32 128.87 190.33Q129.54 192.33 130.85 193.75Q132.17 195.17 134.11 195.96Q136.06 196.75 138.61 196.75ZM207.13 175L207.13 175Q207.13 182.65 205.49 188.30Q203.85 193.95 200.96 197.64Q198.06 201.32 194.11 203.13Q190.16 204.93 185.59 204.93L185.59 204.93Q181.01 204.93 177.10 203.13Q173.19 201.32 170.32 197.64Q167.44 193.95 165.82 188.30Q164.20 182.65 164.20 175L164.20 175Q164.20 167.31 165.82 161.68Q167.44 156.05 170.32 152.36Q173.19 148.67 177.10 146.87Q181.01 145.07 185.59 145.07L185.59 145.07Q190.16 145.07 194.11 146.87Q198.06 148.67 200.96 152.36Q203.85 156.05 205.49 161.68Q207.13 167.31 207.13 175ZM196.81 175L196.81 175Q196.81 168.64 195.87 164.47Q194.94 160.30 193.38 157.83Q191.82 155.36 189.80 154.37Q187.77 153.37 185.59 153.37L185.59 153.37Q183.44 153.37 181.44 154.37Q179.43 155.36 177.89 157.83Q176.35 160.30 175.44 164.47Q174.53 168.64 174.53 175L174.53 175Q174.53 181.36 175.44 185.53Q176.35 189.70 177.89 192.17Q179.43 194.64 181.44 195.63Q183.44 196.63 185.59 196.63L185.59 196.63Q187.77 196.63 189.80 195.63Q191.82 194.64 193.38 192.17Q194.94 189.70 195.87 185.53Q196.81 181.36 196.81 175ZM254.11 175L254.11 175Q254.11 182.65 252.47 188.30Q250.83 193.95 247.94 197.64Q245.04 201.32 241.09 203.13Q237.14 204.93 232.57 204.93L232.57 204.93Q227.99 204.93 224.08 203.13Q220.17 201.32 217.30 197.64Q214.42 193.95 212.80 188.30Q211.18 182.65 211.18 175L211.18 175Q211.18 167.31 212.80 161.68Q214.42 156.05 217.30 152.36Q220.17 148.67 224.08 146.87Q227.99 145.07 232.57 145.07L232.57 145.07Q237.14 145.07 241.09 146.87Q245.04 148.67 247.94 152.36Q250.83 156.05 252.47 161.68Q254.11 167.31 254.11 175ZM243.79 175L243.79 175Q243.79 168.64 242.85 164.47Q241.92 160.30 240.36 157.83Q238.80 155.36 236.78 154.37Q234.75 153.37 232.57 153.37L232.57 153.37Q230.42 153.37 228.42 154.37Q226.41 155.36 224.87 157.83Q223.33 160.30 222.42 164.47Q221.51 168.64 221.51 175L221.51 175Q221.51 181.36 222.42 185.53Q223.33 189.70 224.87 192.17Q226.41 194.64 228.42 195.63Q230.42 196.63 232.57 196.63L232.57 196.63Q234.75 196.63 236.78 195.63Q238.80 194.64 240.36 192.17Q241.92 189.70 242.85 185.53Q243.79 181.36 243.79 175ZM318.43 190.88L313.12 196.10L299.39 182.37L285.54 196.18L280.24 190.96L294.09 177.07L280.88 163.86L286.15 158.60L299.35 171.80L312.47 158.68L317.82 163.94L304.66 177.11L318.43 190.88ZM352.12 162.97L346.86 162.04Q347.47 157.83 349.21 154.65Q350.95 151.47 353.56 149.34Q356.17 147.22 359.56 146.14Q362.94 145.07 366.83 145.07L366.83 145.07Q370.88 145.07 374.14 146.22Q377.40 147.38 379.70 149.42Q382.01 151.47 383.25 154.22Q384.48 156.98 384.48 160.18L384.48 160.18Q384.48 162.97 383.86 165.10Q383.23 167.22 382.05 168.80Q380.88 170.38 379.14 171.48Q377.40 172.57 375.21 173.30L375.21 173.30Q380.47 174.96 383.07 178.36Q385.66 181.76 385.66 186.91L385.66 186.91Q385.66 191.28 384.04 194.64Q382.42 198.00 379.66 200.29Q376.91 202.58 373.28 203.75Q369.66 204.93 365.61 204.93L365.61 204.93Q361.20 204.93 357.92 203.92Q354.63 202.90 352.20 200.92Q349.77 198.94 348.07 196.06Q346.37 193.18 345.16 189.42L345.16 189.42L349.57 187.60Q351.31 186.87 352.83 187.21Q354.35 187.56 355.04 188.85L355.04 188.85Q355.77 190.27 356.64 191.65Q357.51 193.02 358.73 194.10Q359.94 195.17 361.58 195.84Q363.22 196.51 365.49 196.51L365.49 196.51Q368.04 196.51 369.94 195.68Q371.85 194.84 373.12 193.51Q374.40 192.17 375.03 190.53Q375.65 188.89 375.65 187.23L375.65 187.23Q375.65 185.13 375.21 183.40Q374.76 181.68 373.35 180.47Q371.93 179.25 369.28 178.56Q366.62 177.88 362.17 177.88L362.17 177.88L362.17 170.75Q365.85 170.71 368.28 170.06Q370.71 169.41 372.15 168.26Q373.59 167.10 374.16 165.48Q374.72 163.86 374.72 161.92L374.72 161.92Q374.72 157.79 372.41 155.64Q370.11 153.49 366.26 153.49L366.26 153.49Q364.48 153.49 362.98 154.00Q361.48 154.51 360.28 155.42Q359.09 156.33 358.28 157.54Q357.47 158.76 357.06 160.22L357.06 160.22Q356.38 162.08 355.26 162.69Q354.15 163.30 352.12 162.97L352.12 162.97ZM407.97 154.79L405.91 166.98Q407.85 166.58 409.63 166.39Q411.42 166.21 413.08 166.21L413.08 166.21Q417.69 166.21 421.22 167.59Q424.74 168.97 427.13 171.40Q429.52 173.83 430.73 177.09Q431.95 180.35 431.95 184.11L431.95 184.11Q431.95 188.77 430.31 192.62Q428.67 196.47 425.75 199.20Q422.84 201.93 418.85 203.43Q414.86 204.93 410.16 204.93L410.16 204.93Q407.41 204.93 404.94 204.36Q402.47 203.80 400.30 202.84Q398.13 201.89 396.29 200.66Q394.45 199.42 392.99 198.04L392.99 198.04L396.07 193.79Q397.04 192.41 398.62 192.41L398.62 192.41Q399.63 192.41 400.68 193.06Q401.74 193.71 403.09 194.48Q404.45 195.25 406.29 195.90Q408.14 196.55 410.73 196.55L410.73 196.55Q413.48 196.55 415.59 195.66Q417.69 194.76 419.09 193.16Q420.49 191.56 421.20 189.36Q421.91 187.15 421.91 184.56L421.91 184.56Q421.91 179.78 419.13 177.09Q416.36 174.39 410.93 174.39L410.93 174.39Q406.76 174.39 402.38 175.93L402.38 175.93L396.15 174.15L401.01 145.72L429.92 145.72L429.92 149.97Q429.92 152.12 428.59 153.45Q427.25 154.79 424.05 154.79L424.05 154.79L407.97 154.79ZM481.40 175L481.40 175Q481.40 182.65 479.76 188.30Q478.12 193.95 475.22 197.64Q472.33 201.32 468.38 203.13Q464.43 204.93 459.85 204.93L459.85 204.93Q455.28 204.93 451.37 203.13Q447.46 201.32 444.59 197.64Q441.71 193.95 440.09 188.30Q438.47 182.65 438.47 175L438.47 175Q438.47 167.31 440.09 161.68Q441.71 156.05 444.59 152.36Q447.46 148.67 451.37 146.87Q455.28 145.07 459.85 145.07L459.85 145.07Q464.43 145.07 468.38 146.87Q472.33 148.67 475.22 152.36Q478.12 156.05 479.76 161.68Q481.40 167.31 481.40 175ZM471.07 175L471.07 175Q471.07 168.64 470.14 164.47Q469.21 160.30 467.65 157.83Q466.09 155.36 464.07 154.37Q462.04 153.37 459.85 153.37L459.85 153.37Q457.71 153.37 455.70 154.37Q453.70 155.36 452.16 157.83Q450.62 160.30 449.71 164.47Q448.80 168.64 448.80 175L448.80 175Q448.80 181.36 449.71 185.53Q450.62 189.70 452.16 192.17Q453.70 194.64 455.70 195.63Q457.71 196.63 459.85 196.63L459.85 196.63Q462.04 196.63 464.07 195.63Q466.09 194.64 467.65 192.17Q469.21 189.70 470.14 185.53Q471.07 181.36 471.07 175Z" fill="#FFF"/></svg>