<?xml version="1.0" encoding="UTF-8"?>
<!DOCTYPE svg PUBLIC "-//W3C//DTD SVG 1.1//EN" "http://www.w3.org/Graphics/SVG/1.1/DTD/svg11.dtd">
<svg xmlns="http://www.w3.org/2000/svg" version="1.1" width="80px" height="80px" style="shape-rendering:geometricPrecision; text-rendering:geometricPrecision; image-rendering:optimizeQuality; fill-rule:evenodd; clip-rule:evenodd" xmlns:xlink="http://www.w3.org/1999/xlink">
<g><path style="opacity:0.975" fill="#000000" d="M 16.5,8.5 C 31.8333,8.5 47.1667,8.5 62.5,8.5C 64.193,29.0924 65.193,49.759 65.5,70.5C 48.1667,70.5 30.8333,70.5 13.5,70.5C 13.807,49.759 14.807,29.0924 16.5,8.5 Z M 18.5,10.5 C 32.5,10.5 46.5,10.5 60.5,10.5C 60.5,11.5 60.5,12.5 60.5,13.5C 46.5,13.5 32.5,13.5 18.5,13.5C 18.5,12.5 18.5,11.5 18.5,10.5 Z M 16.5,15.5 C 31.8333,15.5 47.1667,15.5 62.5,15.5C 62.5,33.1667 62.5,50.8333 62.5,68.5C 47.1667,68.5 31.8333,68.5 16.5,68.5C 16.5,50.8333 16.5,33.1667 16.5,15.5 Z"/></g>
<g><path style="opacity:0.688" fill="#000000" d="M 27.5,20.5 C 28.8333,20.5 30.1667,20.5 31.5,20.5C 28.8907,31.0455 32.8907,35.8788 43.5,35C 47.8707,31.0184 49.204,26.1851 47.5,20.5C 48.8333,20.5 50.1667,20.5 51.5,20.5C 51.1543,25.2734 50.321,29.9401 49,34.5C 44.9089,38.3049 40.0755,39.4716 34.5,38C 32.714,37.2155 31.214,36.0488 30,34.5C 28.679,29.9401 27.8457,25.2734 27.5,20.5 Z"/></g>
<g><path style="opacity:0.766" fill="#000000" d="M 18.5,62.5 C 20.337,62.6395 20.6704,63.3061 19.5,64.5C 18.7025,64.0431 18.3691,63.3764 18.5,62.5 Z"/></g>
<g><path style="opacity:0.766" fill="#000000" d="M 22.5,62.5 C 24.337,62.6395 24.6704,63.3061 23.5,64.5C 22.7025,64.0431 22.3691,63.3764 22.5,62.5 Z"/></g>
<g><path style="opacity:0.766" fill="#000000" d="M 26.5,62.5 C 28.337,62.6395 28.6704,63.3061 27.5,64.5C 26.7025,64.0431 26.3691,63.3764 26.5,62.5 Z"/></g>
<g><path style="opacity:0.766" fill="#000000" d="M 30.5,62.5 C 32.337,62.6395 32.6704,63.3061 31.5,64.5C 30.7025,64.0431 30.3691,63.3764 30.5,62.5 Z"/></g>
<g><path style="opacity:0.766" fill="#000000" d="M 34.5,62.5 C 36.337,62.6395 36.6704,63.3061 35.5,64.5C 34.7025,64.0431 34.3691,63.3764 34.5,62.5 Z"/></g>
<g><path style="opacity:0.766" fill="#000000" d="M 38.5,62.5 C 40.337,62.6395 40.6704,63.3061 39.5,64.5C 38.7025,64.0431 38.3691,63.3764 38.5,62.5 Z"/></g>
<g><path style="opacity:0.766" fill="#000000" d="M 42.5,62.5 C 44.337,62.6395 44.6704,63.3061 43.5,64.5C 42.7025,64.0431 42.3691,63.3764 42.5,62.5 Z"/></g>
<g><path style="opacity:0.766" fill="#000000" d="M 46.5,62.5 C 48.337,62.6395 48.6704,63.3061 47.5,64.5C 46.7025,64.0431 46.3691,63.3764 46.5,62.5 Z"/></g>
<g><path style="opacity:0.766" fill="#000000" d="M 50.5,62.5 C 52.337,62.6395 52.6704,63.3061 51.5,64.5C 50.7025,64.0431 50.3691,63.3764 50.5,62.5 Z"/></g>
<g><path style="opacity:0.766" fill="#000000" d="M 54.5,62.5 C 56.337,62.6395 56.6704,63.3061 55.5,64.5C 54.7025,64.0431 54.3691,63.3764 54.5,62.5 Z"/></g>
<g><path style="opacity:0.766" fill="#000000" d="M 58.5,62.5 C 60.337,62.6395 60.6704,63.3061 59.5,64.5C 58.7025,64.0431 58.3691,63.3764 58.5,62.5 Z"/></g>
</svg>
