<?xml version="1.0" encoding="UTF-8"?>
<!DOCTYPE svg PUBLIC "-//W3C//DTD SVG 1.1//EN" "http://www.w3.org/Graphics/SVG/1.1/DTD/svg11.dtd">
<svg xmlns="http://www.w3.org/2000/svg" version="1.1" width="256px" height="256px" style="shape-rendering:geometricPrecision; text-rendering:geometricPrecision; image-rendering:optimizeQuality; fill-rule:evenodd; clip-rule:evenodd" xmlns:xlink="http://www.w3.org/1999/xlink">
<g><path style="opacity:0.92" fill="#000000" d="M 46.5,36.5 C 100.501,36.3333 154.501,36.5 208.5,37C 220.206,40.0399 227.039,47.5399 229,59.5C 229.991,111.916 229.658,164.25 228,216.5C 225.032,218.991 221.865,219.157 218.5,217C 203.672,206.752 188.672,196.752 173.5,187C 131.167,186.667 88.8333,186.333 46.5,186C 35.6667,183.167 28.8333,176.333 26,165.5C 25.3333,130.167 25.3333,94.8333 26,59.5C 28.1492,47.5241 34.9826,39.8575 46.5,36.5 Z M 52.5,47.5 C 102.834,47.3333 153.168,47.5 203.5,48C 210.448,48.9477 214.948,52.7811 217,59.5C 217.667,106.833 217.667,154.167 217,201.5C 204.5,193 192,184.5 179.5,176C 137.167,175.667 94.8333,175.333 52.5,175C 45.2534,174.136 40.4201,170.302 38,163.5C 37.3333,128.833 37.3333,94.1667 38,59.5C 40.3192,52.3387 45.1525,48.3387 52.5,47.5 Z M 72.5,106.5 C 78.0226,106.562 79.856,109.229 78,114.5C 73.7909,117.596 70.9575,116.596 69.5,111.5C 70.0924,109.577 71.0924,107.911 72.5,106.5 Z M 126.5,106.5 C 133.866,109.212 134.199,112.545 127.5,116.5C 121.356,113.595 121.023,110.262 126.5,106.5 Z M 179.5,106.5 C 182.699,106.696 184.699,108.363 185.5,111.5C 184.042,116.596 181.209,117.596 177,114.5C 175.837,111.029 176.67,108.362 179.5,106.5 Z"/></g>
<g><path style="opacity:0.904" fill="#000000" d="M 68.5,95.5 C 84.4357,93.6028 91.6023,100.603 90,116.5C 84.4669,127.678 75.9669,130.511 64.5,125C 57.7768,119.495 55.9435,112.661 59,104.5C 61.4301,100.566 64.5967,97.5657 68.5,95.5 Z M 72.5,106.5 C 71.0924,107.911 70.0924,109.577 69.5,111.5C 70.9575,116.596 73.7909,117.596 78,114.5C 79.856,109.229 78.0226,106.562 72.5,106.5 Z"/></g>
<g><path style="opacity:0.904" fill="#000000" d="M 121.5,95.5 C 140.778,94.6097 147.278,103.276 141,121.5C 134.055,128.069 126.222,129.236 117.5,125C 110.931,118.055 109.764,110.222 114,101.5C 116.114,98.8792 118.614,96.8792 121.5,95.5 Z M 126.5,106.5 C 121.023,110.262 121.356,113.595 127.5,116.5C 134.199,112.545 133.866,109.212 126.5,106.5 Z"/></g>
<g><path style="opacity:0.902" fill="#000000" d="M 174.5,95.5 C 187.659,93.2282 195.326,98.5616 197.5,111.5C 195.334,124.595 187.667,129.762 174.5,127C 165.089,121.657 162.255,113.824 166,103.5C 168.157,100.024 170.99,97.3575 174.5,95.5 Z M 179.5,106.5 C 176.67,108.362 175.837,111.029 177,114.5C 181.209,117.596 184.042,116.596 185.5,111.5C 184.699,108.363 182.699,106.696 179.5,106.5 Z"/></g>
</svg>
